<svg id="Capa_2" data-name="Capa 2" xmlns="http://www.w3.org/2000/svg" xmlns:xlink="http://www.w3.org/1999/xlink" viewBox="0 0 500 500"><defs><style>.cls-1{fill:url(#Degradado_sin_nombre_4);}.cls-2{fill:url(#Degradado_sin_nombre_4-2);}.cls-3{fill:url(#Degradado_sin_nombre_4-3);}.cls-4{fill:url(#Degradado_sin_nombre_4-4);}.cls-5{fill:url(#Degradado_sin_nombre_4-5);}.cls-6{font-size:10px;font-family:Roboto-Regular, Roboto;}.cls-26,.cls-6{fill:#fff;}.cls-7{letter-spacing:-0.01em;}.cls-8{fill:url(#Degradado_sin_nombre_4-6);}.cls-9{letter-spacing:-0.01em;}.cls-10{letter-spacing:-0.01em;}.cls-11{letter-spacing:0.01em;}.cls-12{fill:url(#Degradado_sin_nombre_4-7);}.cls-13{letter-spacing:-0.01em;}.cls-14{letter-spacing:-0.01em;}.cls-15{fill:url(#Degradado_sin_nombre_4-8);}.cls-16{letter-spacing:-0.02em;}.cls-17{letter-spacing:-0.05em;}.cls-18{fill:url(#Degradado_sin_nombre_4-9);}.cls-19{letter-spacing:-0.01em;}.cls-20{letter-spacing:-0.01em;}.cls-21{letter-spacing:-0.03em;}.cls-22{letter-spacing:-0.01em;}.cls-23{fill:url(#Degradado_sin_nombre_4-10);}.cls-24{fill:url(#Degradado_sin_nombre_4-11);}.cls-25{fill:url(#Degradado_sin_nombre_4-12);}.cls-26{stroke:#00b666;stroke-miterlimit:10;stroke-width:2px;}</style><linearGradient id="Degradado_sin_nombre_4" x1="362.66" y1="308.25" x2="312.84" y2="308.25" gradientUnits="userSpaceOnUse"><stop offset="0" stop-color="#fff"/><stop offset="1" stop-color="#00b666"/></linearGradient><linearGradient id="Degradado_sin_nombre_4-2" x1="348.97" y1="329.69" x2="300.28" y2="329.69" xlink:href="#Degradado_sin_nombre_4"/><linearGradient id="Degradado_sin_nombre_4-3" x1="118.08" y1="386.33" x2="92.59" y2="386.33" xlink:href="#Degradado_sin_nombre_4"/><linearGradient id="Degradado_sin_nombre_4-4" x1="39.41" y1="403.38" x2="81.59" y2="403.38" xlink:href="#Degradado_sin_nombre_4"/><linearGradient id="Degradado_sin_nombre_4-5" x1="62.25" y1="326.68" x2="69.5" y2="326.68" xlink:href="#Degradado_sin_nombre_4"/><linearGradient id="Degradado_sin_nombre_4-6" x1="296" y1="96" x2="345.33" y2="96" xlink:href="#Degradado_sin_nombre_4"/><linearGradient id="Degradado_sin_nombre_4-7" x1="389.39" y1="203.25" x2="364.98" y2="203.25" xlink:href="#Degradado_sin_nombre_4"/><linearGradient id="Degradado_sin_nombre_4-8" x1="261.5" y1="247.32" x2="302.62" y2="247.32" xlink:href="#Degradado_sin_nombre_4"/><linearGradient id="Degradado_sin_nombre_4-9" x1="210.02" y1="290.35" x2="243.43" y2="290.35" xlink:href="#Degradado_sin_nombre_4"/><linearGradient id="Degradado_sin_nombre_4-10" x1="264.06" y1="357.5" x2="264.06" y2="338.5" xlink:href="#Degradado_sin_nombre_4"/><linearGradient id="Degradado_sin_nombre_4-11" x1="204.21" y1="388.63" x2="204.21" y2="335.11" xlink:href="#Degradado_sin_nombre_4"/><linearGradient id="Degradado_sin_nombre_4-12" x1="163.26" y1="311.5" x2="194.07" y2="311.5" xlink:href="#Degradado_sin_nombre_4"/></defs><title>data_japon</title><path class="cls-1" d="M361.84,297.76l-49.5,16.16c-3,1-1.75,5.83,1.32,4.82l49.5-16.16c3-1,1.75-5.83-1.32-4.82Z"/><path class="cls-2" d="M347.4,339c-9.75,7.3-23.17,10.89-34.54,5-13.06-6.76-10.61-22.34-3.87-32.91,1.74-2.72-2.59-5.23-4.32-2.52-7.77,12.19-9.93,29.65,3.67,38.58,12.84,8.42,30,4.87,41.59-3.83,2.55-1.9.06-6.25-2.53-4.32Z"/><path class="cls-3" d="M119.83,403.4,95.16,366.74c-1.79-2.66-6.12-.16-4.32,2.52l24.67,36.67c1.78,2.65,6.12.15,4.32-2.53Z"/><path class="cls-4" d="M41.52,424.27,83,386c2.37-2.19-1.17-5.72-3.54-3.54L38,420.73c-2.37,2.19,1.17,5.72,3.54,3.54Z"/><path class="cls-5" d="M60.25,296.18q3.12,30.51,6.25,61c.32,3.17,5.33,3.21,5,0q-3.12-30.49-6.25-61c-.32-3.17-5.33-3.2-5,0Z"/><text class="cls-6" transform="translate(214 98.83)">Sappo<tspan class="cls-7" x="28.3" y="0">r</tspan><tspan x="31.58" y="0">o Dome</tspan></text><path class="cls-8" d="M296,98.5h49.33c3.22,0,3.23-5,0-5H296c-3.22,0-3.22,5,0,5Z"/><text class="cls-6" transform="translate(395.62 202)">Kamaishi Rec<tspan class="cls-9" x="60.6" y="0">o</tspan><tspan class="cls-10" x="66.23" y="0">v</tspan><tspan x="71.01" y="0">e</tspan><tspan class="cls-11" x="76.3" y="0">r</tspan><tspan x="79.78" y="0">y</tspan><tspan x="0" y="12">Memorial Stadium</tspan></text><path class="cls-12" d="M365,205.33l24.37.84c3.22.11,3.21-4.89,0-5L365,200.33c-3.22-.11-3.21,4.89,0,5Z"/><text class="cls-6" transform="translate(216.62 188.33)"><tspan class="cls-13">K</tspan><tspan x="6.16" y="0">umag</tspan><tspan class="cls-9" x="31.48" y="0">ay</tspan><tspan x="41.51" y="0">a Rug</tspan><tspan class="cls-14" x="66.7" y="0">b</tspan><tspan x="72.26" y="0">y </tspan><tspan x="0" y="12">Stadium</tspan></text><path class="cls-15" d="M259.5,198.5a156.67,156.67,0,0,0,41,99.27c2.18,2.38,5.71-1.17,3.54-3.54A151.18,151.18,0,0,1,264.5,198.5c-.13-3.21-5.13-3.22-5,0Z"/><text class="cls-6" transform="translate(185.05 232.56)">City of<tspan class="cls-16" x="28.58" y="0"> </tspan><tspan class="cls-17" x="30.86" y="0">T</tspan><tspan class="cls-9" x="36.35" y="0">oy</tspan><tspan x="46.64" y="0">ota </tspan><tspan x="0" y="12">Stadium</tspan></text><path class="cls-18" d="M208.09,252.66a317.79,317.79,0,0,0,32.75,77.27c1.64,2.77,6,.26,4.32-2.53a312.66,312.66,0,0,1-32.25-76.06c-.85-3.1-5.68-1.79-4.82,1.32Z"/><text class="cls-6" transform="translate(142.39 271.25)"><tspan class="cls-19">K</tspan><tspan x="6.14" y="0">obe Misaki </tspan><tspan x="0" y="12">Stadium</tspan></text><text class="cls-6" transform="translate(185.05 400.42)">Hana<tspan class="cls-20" x="23.53" y="0">z</tspan><tspan x="28.4" y="0">ono Rug</tspan><tspan class="cls-14" x="65.08" y="0">b</tspan><tspan x="70.64" y="0">y </tspan><tspan x="0" y="12">Stadium</tspan></text><text class="cls-6" transform="translate(264.05 369.29)">Shizuoka Stadium</text><text class="cls-6" transform="translate(352.55 342.81)">International <tspan x="0" y="12">Stadium </tspan><tspan class="cls-21" x="39.46" y="12">Y</tspan><tspan x="45.15" y="12">okohama</tspan></text><text class="cls-6" transform="translate(366.05 304.5)"><tspan class="cls-17">T</tspan><tspan x="5.48" y="0">ok</tspan><tspan class="cls-9" x="16.25" y="0">y</tspan><tspan x="20.91" y="0">o Stadium</tspan></text><text class="cls-6" transform="translate(18.67 279.67)"><tspan class="cls-22">F</tspan><tspan x="5.42" y="0">ukuoka</tspan><tspan x="0" y="12">Hakatanomori</tspan><tspan x="0" y="24">Stadium</tspan></text><text class="cls-6" transform="translate(12.97 434.33)"><tspan class="cls-13">K</tspan><tspan x="6.16" y="0">umamo</tspan><tspan class="cls-7" x="40.34" y="0">t</tspan><tspan x="43.51" y="0">o </tspan><tspan x="0" y="12">Stadium</tspan></text><text class="cls-6" transform="translate(105.74 416.58)">Oita Stadium</text><path class="cls-23" d="M266.5,357.5q.06-9.5.13-19c0-3.22-5-3.22-5,0q-.08,9.5-.13,19c0,3.22,5,3.22,5,0Z"/><path class="cls-24" d="M205.38,388.63a404.62,404.62,0,0,1,2.7-53.46c.38-3.19-4.63-3.17-5,0a404.62,404.62,0,0,0-2.7,53.46c.05,3.21,5.05,3.22,5,0Z"/><path class="cls-25" d="M161.51,291.6l30,42.33c1.84,2.6,6.18.11,4.32-2.53l-30-42.33c-1.85-2.6-6.19-.11-4.32,2.53Z"/><circle class="cls-26" cx="345.33" cy="96" r="4.79"/><circle class="cls-26" cx="365" cy="202.83" r="4.79"/><circle class="cls-26" cx="302.25" cy="296" r="4.79"/><circle class="cls-26" cx="313" cy="316.33" r="4.79"/><circle class="cls-26" cx="307.04" cy="309.85" r="4.79"/><circle class="cls-26" cx="264.06" cy="338.5" r="4.79"/><circle class="cls-26" cx="243" cy="328.67" r="4.79"/><circle class="cls-26" cx="206.21" cy="333.77" r="4.79"/><circle class="cls-26" cx="193.67" cy="332.37" r="4.79"/><circle class="cls-26" cx="93" cy="368" r="4.79"/><circle class="cls-26" cx="69" cy="357" r="4.79"/><circle class="cls-26" cx="80.79" cy="384.75" r="4.79"/></svg>